<?xml version="1.0" encoding="UTF-8"?>
<!--
  - Copyright (c) 2025.
  -->

<svg id="Layer_1" data-name="Layer 1" xmlns="http://www.w3.org/2000/svg" viewBox="0 0 1916.7 1080.1">
<defs>
  <style>
    .cls-1 {
    fill: #fff;
    }
    .cls-1, .cls-2, .cls-3 {
    stroke: #000;
    stroke-miterlimit: 10;
    stroke-width: 9px;
    }
    .cls-2 {
    fill: none;
    }
  </style>
</defs>
<path class="cls-1" d="M1892,23.3c-5.3,7.2-11.3,17.9-10,30,1.5,14.7,12.3,20,17,34,6.7,20.1-12.9,27.3-9,48,3.5,18.9,19.9,23.8,18,38-1.2,9.2-9.3,15.8-16,20"/>
<circle class="cls-3" cx="1892.5" cy="229.8" r="18.5"/>
<path class="cls-2" d="M1874,268.3c12.2,4.5,24,10.7,24,18,0,10.3-23,13.8-24,26-1,13.3,25.7,20.9,24,33-1.4,10.2-20.9,10.7-24,22-3.1,11.2,20.8,18.1,21,32,.2,10.7-18,12.1-21,24-2.8,11,8.3,23.4,18,32">
  <animate attributeName="stroke-dasharray" from="0,2000" to="2000,0" dur="5s" fill="freeze"/>
</path>
<rect class="cls-2" x="1865" y="469.3" width="42" height="42">
  <animate attributeName="stroke-dasharray" from="0,500" to="500,0" dur="5s" fill="freeze"/>
</rect>
<path class="cls-2" d="M1886,534.3v174">
  <animate attributeName="stroke-dasharray" from="0,500" to="500,0" dur="5s" fill="freeze"/>
</path>
<polygon class="cls-2" points="1892.9 785 1867.2 778.1 1860.3 752.4 1879.2 733.6 1904.9 740.5 1911.7 766.2 1892.9 785">
  <animate attributeName="stroke-dasharray" from="0,1000" to="1000,0" dur="5s" fill="freeze"/>
</polygon>
<path class="cls-2" d="M1867,808.3c25.1,6.7,30.1,11.8,30,15.2-.2,8.4-30.3,12.2-30,20,.3,7.4,27.5,9.2,28,17.1.6,8.3-28.7,13.8-28,21.9.6,7.4,25.2,8.4,26,16.2.9,8.4-27.2,15.5-26,21.9,1.2,6.3,28.9,4.5,30,10.5,1.2,6.4-28.8,13.5-28,21.9.7,7.7,26.1,7.7,28,17.1,1.9,9.8-23.7,17.4-23,29.5.5,7.9,12,14,23,18.1">
  <animate attributeName="stroke-dasharray" from="0,2000" to="2000,0" dur="5s" fill="freeze"/>
</path>
<!-- Additional paths would also include <animate> like the above -->
<!-- Repeat this pattern for each cls-2 path or shape -->
</svg>

