<?xml version="1.0" encoding="UTF-8"?>

<!--
  - Copyright (c) 2025.
  -->

<svg id="Layer_1" data-name="Layer 1" xmlns="http://www.w3.org/2000/svg" viewBox="0 0 944.8 797.8">
  <path d="M474.5,237h-4.2c0-31.2-12.8-58.4-38.5-81.7-25.7-23.3-55.7-34.9-90-34.9v-3.8c34.3,0,64.3-11.6,90-35,25.7-23.3,38.5-50.6,38.5-81.6h4.2c0,31.2,12.8,58.4,38.5,81.7s55.7,34.9,90,34.9v3.8c-34.3,0-64.3,11.6-90,34.9-25.7,23.3-38.5,50.5-38.5,81.7Z"/>
  <path d="M816.3,794.9h-4.2c0-31.2-12.8-58.4-38.5-81.7-25.7-23.3-55.7-34.9-90-34.9v-3.8c34.3,0,64.3-11.6,90-35,25.7-23.3,38.5-50.6,38.5-81.6h4.2c0,31.2,12.8,58.4,38.5,81.7,25.7,23.3,55.7,34.9,90,34.9v3.8c-34.3,0-64.3,11.6-90,34.9-25.7,23.3-38.5,50.5-38.5,81.7Z"/>
  <path d="M816.3,237h-4.2c0-31.2-12.8-58.4-38.5-81.7s-55.7-34.9-90-34.9v-3.8c34.3,0,64.3-11.6,90-35C799.2,58.3,812.1,31,812.1,0h4.2c0,31.2,12.8,58.4,38.5,81.7s55.7,34.9,90,34.9v3.8c-34.3,0-64.3,11.6-90,34.9-25.7,23.3-38.5,50.5-38.5,81.7Z"/>
  <path d="M816.3,518.8h-4.2c0-31.2-12.8-58.4-38.5-81.7s-55.7-34.9-90-34.9v-3.8c34.3,0,64.3-11.6,90-35,25.7-23.3,38.5-50.6,38.5-81.6h4.2c0,31.2,12.8,58.4,38.5,81.7,25.7,23.3,55.7,34.9,90,34.9v3.8c-34.3,0-64.3,11.6-90,34.9-25.7,23.3-38.5,50.5-38.5,81.7Z"/>
  <path d="M474.5,794.9h-4.2c0-31.2-12.8-58.4-38.5-81.7-25.7-23.3-55.7-34.9-90-34.9v-3.8c34.3,0,64.3-11.6,90-35,25.7-23.3,38.5-50.6,38.5-81.6h4.2c0,31.2,12.8,58.4,38.5,81.7,25.7,23.3,55.7,34.9,90,34.9v3.8c-34.3,0-64.3,11.6-90,34.9-25.7,23.3-38.5,50.5-38.5,81.7Z"/>
  <path d="M132.7,797.8h-4.2c0-31.2-12.8-58.4-38.5-81.7-25.7-23.3-55.7-34.9-90-34.9v-3.8c34.3,0,64.3-11.6,90-35,25.7-23.3,38.5-50.6,38.5-81.6h4.2c0,31.2,12.8,58.4,38.5,81.7,25.7,23.3,55.7,34.9,90,34.9v3.8c-34.3,0-64.3,11.6-90,34.9-25.7,23.3-38.5,50.5-38.5,81.7Z"/>
  <path d="M132.7,239.9h-4.2c0-31.2-12.8-58.4-38.5-81.7S34.3,123.3,0,123.3v-3.8c34.3,0,64.3-11.6,90-35,25.7-23.3,38.5-50.6,38.5-81.6h4.2c0,31.2,12.8,58.4,38.5,81.7s55.7,34.9,90,34.9v3.8c-34.3,0-64.3,11.6-90,34.9-25.7,23.3-38.5,50.5-38.5,81.7Z"/>
  <path d="M132.7,521.7h-4.2c0-31.2-12.8-58.4-38.5-81.7S34.3,405.1,0,405.1v-3.8c34.3,0,64.3-11.6,90-35,25.7-23.3,38.5-50.6,38.5-81.6h4.2c0,31.2,12.8,58.4,38.5,81.7,25.7,23.3,55.7,34.9,90,34.9v3.8c-34.3,0-64.3,11.6-90,34.9-25.7,23.3-38.5,50.5-38.5,81.7Z"/>
</svg>