<?xml version="1.0" encoding="UTF-8"?>
<svg class="path" id="Layer_1" data-name="Layer 1" xmlns="http://www.w3.org/2000/svg" viewBox="0 0 945.8 798.8">
  <defs>
    <style>
      .cls-1 {
        fill: none;
        stroke: #f0f0f0;

        stroke-miterlimit: 1;



      }
      .path{ stroke-dasharray: 10;
      stroke-width: 1vw;
      animation: dash 10s linear;
      animation-iteration-count: infinite;
      }

      @keyframes dash {
      to {
      stroke-dashoffset: 400;
      }


    </style>
  </defs>
  <path class="cls-1" d="M475,237.5h-4.2c0-31.2-12.8-58.4-38.5-81.7-25.7-23.3-55.7-34.9-90-34.9v-3.8c34.3,0,64.3-11.6,90-35,25.7-23.3,38.5-50.6,38.5-81.6h4.2c0,31.2,12.8,58.4,38.5,81.7s55.7,34.9,90,34.9v3.8c-34.3,0-64.3,11.6-90,34.9-25.7,23.3-38.5,50.5-38.5,81.7Z"/>
  <path class="cls-1" d="M816.8,795.4h-4.2c0-31.2-12.8-58.4-38.5-81.7-25.7-23.3-55.7-34.9-90-34.9v-3.8c34.3,0,64.3-11.6,90-35,25.7-23.3,38.5-50.6,38.5-81.6h4.2c0,31.2,12.8,58.4,38.5,81.7,25.7,23.3,55.7,34.9,90,34.9v3.8c-34.3,0-64.3,11.6-90,34.9-25.7,23.3-38.5,50.5-38.5,81.7Z"/>
  <path class="cls-1" d="M816.8,237.5h-4.2c0-31.2-12.8-58.4-38.5-81.7s-55.7-34.9-90-34.9v-3.8c34.3,0,64.3-11.6,90-35,25.7-23.3,38.5-50.6,38.5-81.6h4.2c0,31.2,12.8,58.4,38.5,81.7s55.7,34.9,90,34.9v3.8c-34.3,0-64.3,11.6-90,34.9-25.7,23.3-38.5,50.5-38.5,81.7Z"/>
  <path class="cls-1" d="M816.8,519.3h-4.2c0-31.2-12.8-58.4-38.5-81.7s-55.7-34.9-90-34.9v-3.8c34.3,0,64.3-11.6,90-35,25.7-23.3,38.5-50.6,38.5-81.6h4.2c0,31.2,12.8,58.4,38.5,81.7,25.7,23.3,55.7,34.9,90,34.9v3.8c-34.3,0-64.3,11.6-90,34.9-25.7,23.3-38.5,50.5-38.5,81.7Z"/>
  <path class="cls-1" d="M475,795.4h-4.2c0-31.2-12.8-58.4-38.5-81.7-25.7-23.3-55.7-34.9-90-34.9v-3.8c34.3,0,64.3-11.6,90-35,25.7-23.3,38.5-50.6,38.5-81.6h4.2c0,31.2,12.8,58.4,38.5,81.7,25.7,23.3,55.7,34.9,90,34.9v3.8c-34.3,0-64.3,11.6-90,34.9-25.7,23.3-38.5,50.5-38.5,81.7Z"/>
  <path class="cls-1" d="M133.2,798.3h-4.2c0-31.2-12.8-58.4-38.5-81.7-25.7-23.3-55.7-34.9-90-34.9v-3.8c34.3,0,64.3-11.6,90-35,25.7-23.3,38.5-50.6,38.5-81.6h4.2c0,31.2,12.8,58.4,38.5,81.7,25.7,23.3,55.7,34.9,90,34.9v3.8c-34.3,0-64.3,11.6-90,34.9-25.7,23.3-38.5,50.5-38.5,81.7Z"/>
  <path class="cls-1" d="M133.2,240.4h-4.2c0-31.2-12.8-58.4-38.5-81.7S34.8,123.8.5,123.8v-3.8c34.3,0,64.3-11.6,90-35,25.7-23.3,38.5-50.6,38.5-81.6h4.2c0,31.2,12.8,58.4,38.5,81.7s55.7,34.9,90,34.9v3.8c-34.3,0-64.3,11.6-90,34.9-25.7,23.3-38.5,50.5-38.5,81.7Z"/>
  <path class="cls-1" d="M133.2,522.2h-4.2c0-31.2-12.8-58.4-38.5-81.7S34.8,405.6.5,405.6v-3.8c34.3,0,64.3-11.6,90-35,25.7-23.3,38.5-50.6,38.5-81.6h4.2c0,31.2,12.8,58.4,38.5,81.7,25.7,23.3,55.7,34.9,90,34.9v3.8c-34.3,0-64.3,11.6-90,34.9-25.7,23.3-38.5,50.5-38.5,81.7Z"/>
</svg>