<svg version="1.1" id="Layer_1" xmlns="http://www.w3.org/2000/svg" xmlns:xlink="http://www.w3.org/1999/xlink" x="0px" y="0px"
	 width="100%" viewBox="0 0 176 144" enable-background="new 0 0 176 144" xml:space="preserve">
<path fill="#000000" opacity="1.000000" stroke="none" 
	d="
M177.000000,62.583336 
	C171.808563,65.226868 168.946503,70.275101 164.351349,73.354469 
	C159.445435,76.642090 154.177811,78.637321 148.588852,79.097511 
	C139.337967,79.859222 129.985886,80.414558 121.072243,76.439056 
	C118.099945,75.113411 115.050110,76.134995 111.340546,77.626350 
	C124.183975,87.410103 134.151642,98.375580 138.956604,114.589882 
	C130.102310,109.367004 122.315430,105.002525 118.291672,96.008865 
	C115.373894,89.487221 111.818123,83.195457 106.021294,78.594604 
	C104.851158,77.665886 103.799202,76.468674 102.190285,76.405327 
	C91.527023,75.985481 81.182297,73.482422 70.553589,71.589600 
	C84.126740,81.141556 81.669571,97.334175 88.019409,110.717514 
	C84.436348,110.568474 83.176292,108.451683 81.459274,107.174896 
	C78.653221,105.088295 75.902252,102.922707 73.033478,100.926331 
	C65.875954,95.945389 63.753082,89.108826 65.434288,80.819000 
	C67.157150,72.323776 64.946495,69.352715 56.689003,66.769310 
	C48.484486,64.202484 40.289856,65.112114 32.070995,65.597862 
	C23.663769,66.094749 15.923258,64.058784 8.537871,60.318035 
	C6.952192,59.514877 5.292184,58.534386 5.285318,56.087704 
	C7.929988,55.363201 10.110008,56.836540 12.393848,57.523037 
	C17.170891,58.958954 21.882675,60.537430 26.963413,60.686733 
	C32.151031,60.839180 36.639832,59.706787 40.809341,56.245945 
	C44.226547,53.409538 48.343815,51.360703 52.302002,49.245827 
	C57.394226,46.525032 58.949051,44.194904 57.412613,38.895687 
	C52.789574,22.950727 55.505558,15.786118 63.537811,4.071579 
	C70.423637,18.090708 74.323410,31.813704 60.934612,45.182720 
	C68.186714,44.932476 73.021713,42.331905 76.962265,37.605900 
	C82.124184,31.415089 88.147865,26.296259 95.507469,22.710781 
	C103.446724,18.842915 111.937920,19.442074 121.114288,18.434326 
	C115.288795,26.975430 111.907555,36.094799 104.377426,42.574062 
	C94.520920,51.055042 83.135498,50.160511 71.674332,48.198608 
	C66.671974,47.342312 62.589405,48.744347 58.091541,51.450840 
	C66.636765,51.943676 72.598282,55.959202 76.541458,63.721333 
	C73.816902,64.088333 72.483452,62.461884 71.109276,61.218830 
	C67.439766,57.899479 63.284843,56.053677 58.384445,54.870537 
	C51.950771,53.317204 47.457203,55.498402 42.925220,60.026226 
	C44.895893,61.292580 46.807301,61.477093 48.761097,61.658497 
	C54.070038,62.151417 59.296040,63.157051 64.365028,64.797989 
	C82.045677,70.521561 89.711678,68.136383 101.003395,53.128628 
	C108.759201,42.820454 118.131233,34.577080 130.255081,29.748322 
	C133.351517,28.515057 136.537720,27.931740 140.873581,27.910473 
	C134.377106,35.180168 132.005188,43.792625 127.687881,51.348568 
	C120.920647,63.192242 110.439522,69.535500 96.713585,70.285797 
	C95.217361,70.367577 93.720932,70.446396 92.225601,70.542282 
	C92.080452,70.551590 91.942429,70.672241 91.848305,71.270630 
	C103.932564,71.875710 116.308578,76.588913 127.630394,67.577477 
	C139.487701,58.139832 153.190582,56.170185 167.779373,58.339771 
	C170.611267,58.760925 173.417313,58.838547 176.596664,58.002422 
	C177.000000,59.388889 177.000000,60.777779 177.000000,62.583336 
M95.239563,31.350426 
	C98.044434,27.787622 102.617317,26.698481 106.146156,24.019194 
	C104.369125,21.288723 102.557434,22.905338 100.729424,23.242941 
	C93.175377,24.638044 90.140862,32.620232 83.311325,35.104378 
	C82.446663,35.418884 81.084953,36.720123 82.275307,38.424625 
	C86.966911,37.125061 90.086311,32.751656 95.568069,32.360153 
	C97.000397,33.322929 99.148315,32.878899 100.738029,35.078514 
	C94.943024,35.177265 89.446960,34.979046 86.310028,40.490650 
	C97.249367,45.003643 111.035446,36.590572 113.627983,23.628460 
	C111.518951,24.589678 109.600594,25.557728 107.612442,26.350813 
	C103.331718,28.058426 99.997002,31.876715 95.239563,31.350426 
M107.411911,49.903412 
	C104.254601,53.903069 101.097290,57.902721 97.939980,61.902378 
	C108.396873,58.321331 124.016205,42.713203 126.488327,34.326870 
	C119.131744,38.238361 113.212471,43.438461 107.411911,49.903412 
M144.171295,67.760216 
	C151.975327,67.025665 158.975616,63.369678 166.635071,62.109600 
	C154.437790,57.224991 137.540268,61.514072 134.295792,69.894112 
	C137.545563,70.058601 140.497559,68.979515 144.171295,67.760216 
M118.418053,49.869850 
	C113.058907,55.040215 108.790161,61.372845 100.531326,64.789619 
	C110.423073,67.044571 124.388107,56.432331 125.843040,47.040237 
	C123.238472,46.992798 120.896820,47.581367 118.418053,49.869850 
M165.472305,68.790321 
	C166.019669,67.623070 165.223282,67.268265 164.360260,67.158325 
	C156.436340,66.148888 149.513947,69.639702 140.886475,71.564529 
	C150.625839,76.595863 158.215546,75.731178 165.472305,68.790321 
M69.072403,78.515556 
	C66.569000,89.308113 69.926308,98.437668 76.519646,97.854126 
	C75.146370,92.545624 73.859474,87.260262 72.375473,82.030838 
	C71.950348,80.532761 71.688110,78.648109 69.072403,78.515556 
M124.679306,93.819984 
	C123.300484,92.453079 122.552353,89.952271 119.700050,90.833328 
	C121.631241,97.270912 126.219826,103.375137 130.604095,105.642830 
	C129.261169,101.765755 128.261459,97.532936 124.679306,93.819984 
M63.412014,29.094355 
	C63.530258,31.256454 64.142700,31.450827 65.541313,29.742611 
	C68.584656,26.025604 68.187935,20.866489 64.332230,15.931378 
	C62.672077,17.192450 63.047390,19.214584 62.446960,20.853848 
	C61.454319,23.563910 64.625977,25.714348 63.412014,29.094355 
M88.032578,46.724213 
	C89.193428,46.381413 90.681984,47.246109 91.804871,45.482319 
	C86.842720,44.839951 82.353928,40.265087 76.851807,44.824699 
	C77.632576,45.359619 77.986198,45.796772 78.386864,45.845264 
	C81.328575,46.201294 84.279694,46.479546 88.032578,46.724213 
M143.253799,76.963806 
	C143.550369,76.826859 143.862976,76.714218 144.132416,76.536209 
	C144.201599,76.490494 144.201294,76.166115 144.120605,76.092003 
	C141.062363,73.283180 135.429596,72.432770 132.793854,74.447899 
	C135.470612,77.737007 138.901718,78.027306 143.253799,76.963806 
M60.719658,22.866465 
	C59.851078,20.667503 59.323311,21.750757 58.935154,23.083029 
	C57.495461,28.024452 58.998699,32.738174 60.000378,37.974026 
	C62.189846,32.921692 60.895050,28.196079 60.719658,22.866465 
M129.393814,37.228546 
	C127.530006,39.431000 125.666191,41.633453 123.477989,44.219238 
	C128.968781,44.384212 130.205750,42.902847 131.846863,35.026615 
	C131.051254,35.721485 130.438934,36.256260 129.393814,37.228546 
M77.658943,91.079651 
	C79.051781,91.479996 79.664627,90.658768 79.225060,89.580368 
	C78.451920,87.683609 77.775879,85.634262 75.403511,83.853745 
	C75.904022,86.594505 75.709488,88.822334 77.658943,91.079651 
z"/>
</svg>